<svg width="48" height="48" viewBox="0 0 96 90" fill="none" xmlns="http://www.w3.org/2000/svg">
<g clip-path="url(#clip0_0_1)">
<rect width="96" height="90" rx="20" fill="#0EA5E9"/>
<path d="M13.2141 44.8C13.2141 37.8667 14.7141 31.7 17.7141 26.3C20.7141 20.8333 24.8807 16.6 30.2141 13.6C35.6141 10.5333 41.7141 9 48.5141 9C56.8474 9 63.9807 11.2 69.9141 15.6C75.8474 20 79.8141 26 81.8141 33.6H63.0141C61.6141 30.6667 59.6141 28.4333 57.0141 26.9C54.4807 25.3667 51.5807 24.6 48.3141 24.6C43.0474 24.6 38.7807 26.4333 35.5141 30.1C32.2474 33.7667 30.6141 38.6667 30.6141 44.8C30.6141 50.9333 32.2474 55.8333 35.5141 59.5C38.7807 63.1667 43.0474 65 48.3141 65C51.5807 65 54.4807 64.2333 57.0141 62.7C59.6141 61.1667 61.6141 58.9333 63.0141 56H81.8141C79.8141 63.6 75.8474 69.6 69.9141 74C63.9807 78.3333 56.8474 80.5 48.5141 80.5C41.7141 80.5 35.6141 79 30.2141 76C24.8807 72.9333 20.7141 68.7 17.7141 63.3C14.7141 57.9 13.2141 51.7333 13.2141 44.8Z" fill="white"/>
<path d="M48.3416 57.36C46.5282 57.36 44.9016 57.04 43.4616 56.4C42.0216 55.7333 40.8749 54.84 40.0216 53.72C39.1949 52.6 38.7416 51.36 38.6616 50H44.3016C44.4082 50.8533 44.8216 51.56 45.5416 52.12C46.2882 52.68 47.2082 52.96 48.3016 52.96C49.3682 52.96 50.1949 52.7467 50.7816 52.32C51.3949 51.8933 51.7016 51.3467 51.7016 50.68C51.7016 49.96 51.3282 49.4267 50.5816 49.08C49.8616 48.7067 48.7016 48.3067 47.1016 47.88C45.4482 47.48 44.0882 47.0667 43.0216 46.64C41.9816 46.2133 41.0749 45.56 40.3016 44.68C39.5549 43.8 39.1816 42.6133 39.1816 41.12C39.1816 39.8933 39.5282 38.7733 40.2216 37.76C40.9416 36.7467 41.9549 35.9467 43.2616 35.36C44.5949 34.7733 46.1549 34.48 47.9416 34.48C50.5816 34.48 52.6882 35.1467 54.2616 36.48C55.8349 37.7867 56.7016 39.56 56.8616 41.8H51.5016C51.4216 40.92 51.0482 40.2267 50.3816 39.72C49.7416 39.1867 48.8749 38.92 47.7816 38.92C46.7682 38.92 45.9816 39.1067 45.4216 39.48C44.8882 39.8533 44.6216 40.3733 44.6216 41.04C44.6216 41.7867 44.9949 42.36 45.7416 42.76C46.4882 43.1333 47.6482 43.52 49.2216 43.92C50.8216 44.32 52.1416 44.7333 53.1816 45.16C54.2216 45.5867 55.1149 46.2533 55.8616 47.16C56.6349 48.04 57.0349 49.2133 57.0616 50.68C57.0616 51.96 56.7016 53.1067 55.9816 54.12C55.2882 55.1333 54.2749 55.9333 52.9416 56.52C51.6349 57.08 50.1016 57.36 48.3416 57.36Z" fill="white"/>
</g>
<defs>
<clipPath id="clip0_0_1">
<rect width="96" height="90" rx="20" fill="white"/>
</clipPath>
</defs>
</svg>
